<svg width="28" height="28" viewBox="0 0 28 28" fill="none" xmlns="http://www.w3.org/2000/svg">
<path d="M13.9998 2.33331V9.33331C13.9998 9.95215 14.2457 10.5456 14.6833 10.9832C15.1208 11.4208 15.7143 11.6666 16.3332 11.6666H23.3332V23.3333C23.3332 23.9522 23.0873 24.5456 22.6497 24.9832C22.2122 25.4208 21.6187 25.6666 20.9998 25.6666H6.99984C6.381 25.6666 5.78751 25.4208 5.34992 24.9832C4.91234 24.5456 4.6665 23.9522 4.6665 23.3333V4.66665C4.6665 4.04781 4.91234 3.45432 5.34992 3.01673C5.78751 2.57915 6.381 2.33331 6.99984 2.33331H13.9998Z" fill="#212121"/>
<path d="M15.75 2.91669V9.33335C15.75 9.48806 15.8115 9.63644 15.9209 9.74583C16.0303 9.85523 16.1786 9.91669 16.3333 9.91669H22.75L15.75 2.91669Z" fill="#212121"/>
</svg>
