<svg width="36" height="36" viewBox="0 0 36 36" fill="none" xmlns="http://www.w3.org/2000/svg">
<ellipse cx="17.6538" cy="18" rx="17.6538" ry="18" fill="#0A8ECD"/>
<path d="M18.5059 13.4408V9.3158H14.8861C14.3778 9.3158 13.8904 9.52166 13.531 9.88809C13.1716 10.2545 12.9697 10.7515 12.9697 11.2697V22.5592C12.9697 23.0774 13.1716 23.5744 13.531 23.9409C13.8904 24.3073 14.3778 24.5132 14.8861 24.5132H22.5516C22.8032 24.5132 23.0524 24.4626 23.2849 24.3644C23.5175 24.2662 23.7287 24.1223 23.9067 23.9409C24.0846 23.7594 24.2258 23.544 24.3221 23.307C24.4184 23.0699 24.468 22.8158 24.468 22.5592V15.3947H20.4223C19.914 15.3947 19.4266 15.1889 19.0672 14.8224C18.7078 14.456 18.5059 13.959 18.5059 13.4408Z" fill="white"/>
<path d="M19.7834 13.4408V9.75L24.042 14.0921H20.4222C20.2528 14.0921 20.0903 14.0235 19.9705 13.9013C19.8507 13.7792 19.7834 13.6135 19.7834 13.4408ZM12.1205 11.5971C11.7462 11.7316 11.4221 11.9811 11.1928 12.3113C10.9635 12.6416 10.8403 13.0362 10.8403 13.4408V22.5627C10.8403 23.6567 11.2666 24.7059 12.0253 25.4795C12.784 26.2531 13.813 26.6877 14.886 26.6877H20.4171C21.2518 26.6877 21.9612 26.1441 22.2244 25.3851H14.886C14.1519 25.3851 13.4478 25.0877 12.9287 24.5584C12.4096 24.0291 12.1179 23.3112 12.1179 22.5627L12.1205 11.5971Z" fill="white"/>
</svg>
