<svg width="36" height="36" viewBox="0 0 36 36" fill="none" xmlns="http://www.w3.org/2000/svg">
<ellipse cx="17.6538" cy="18" rx="17.6538" ry="18" fill="#0A8ECD"/>
<path d="M15.1623 22.125H20.8383C20.2699 25.1253 19.1314 27.1667 18.0003 27.1667C16.903 27.1667 15.8003 25.2472 15.2154 22.3964L15.1623 22.1269H20.8383H15.1623V22.125ZM9.81078 22.126H13.7561C14.0907 24.0345 14.6572 25.6588 15.3997 26.7945C13.0691 26.1028 11.1074 24.5162 9.9437 22.3817L9.80986 22.126H9.81078ZM22.2435 22.126H26.1898C25.6253 23.2438 24.8384 24.2345 23.8773 25.0373C22.9163 25.8401 21.8013 26.4381 20.6009 26.7945C21.2929 25.733 21.8329 24.248 22.1729 22.5036L22.2426 22.126H26.1898H22.2426H22.2435ZM22.5204 16.1676H26.9845C27.2937 17.6908 27.2127 19.2675 26.7489 20.751H22.4369C22.5778 19.4286 22.6177 18.0974 22.5561 16.769L22.5194 16.1667H26.9836H22.5194L22.5204 16.1676ZM9.01511 16.1667H13.4793C13.3837 17.516 13.3941 18.8707 13.5104 20.2184L13.5627 20.75H9.25161C8.78728 19.2667 8.70592 17.69 9.01511 16.1667ZM14.8607 16.1667H21.1399C21.2446 17.5173 21.2332 18.8743 21.1059 20.223L21.0491 20.75H14.9514C14.7912 19.3775 14.7507 17.9936 14.8304 16.614L14.8607 16.1667H21.1399H14.8607ZM20.6999 9.36137L20.5999 9.20554C21.9625 9.61002 23.2127 10.325 24.2523 11.2943C25.2919 12.2636 26.0925 13.4607 26.5913 14.7917H22.3819C22.0923 12.577 21.5056 10.674 20.698 9.36229L20.599 9.20646L20.698 9.36229L20.6999 9.36137ZM15.2888 9.23946L15.4006 9.20554C14.593 10.444 13.9926 12.258 13.6736 14.3884L13.6177 14.7917H9.40928C9.90115 13.4792 10.6866 12.2966 11.7057 11.3343C12.7247 10.372 13.9503 9.65544 15.2888 9.23946L15.4006 9.20554L15.2888 9.23946ZM18.0003 8.83521C19.2094 8.83521 20.4258 11.1654 20.9464 14.503L20.9895 14.7917H15.011C15.5069 11.3001 16.7564 8.83521 18.0003 8.83521Z" fill="white"/>
</svg>
