<svg width="42" height="41" viewBox="0 0 42 41" fill="none" xmlns="http://www.w3.org/2000/svg">
<path d="M10.2938 10.3912L10.4186 10.25C10.6964 9.97109 11.0665 9.80426 11.4587 9.78117C11.8509 9.75808 12.2379 9.88032 12.5463 10.1247L12.6869 10.25L20.6262 18.2222L28.5655 10.25C28.8433 9.97108 29.2135 9.80426 29.6056 9.78117C29.9978 9.75808 30.3848 9.88032 30.6932 10.1247L30.8339 10.25C31.1116 10.529 31.2778 10.9006 31.3008 11.2945C31.3238 11.6883 31.202 12.0769 30.9586 12.3866L30.8339 12.5278L22.8946 20.5L30.8339 28.4722C31.1116 28.7512 31.2778 29.1229 31.3008 29.5167C31.3238 29.9105 31.202 30.2991 30.9586 30.6088L30.8339 30.75C30.556 31.0289 30.1859 31.1957 29.7937 31.2188C29.4015 31.2419 29.0145 31.1197 28.7061 30.8753L28.5655 30.75L20.6262 22.7778L12.6869 30.75C12.4091 31.0289 12.039 31.1957 11.6468 31.2188C11.2546 31.2419 10.8676 31.1197 10.5592 30.8753L10.4186 30.75C10.1408 30.471 9.97468 30.0994 9.95169 29.7055C9.92869 29.3117 10.0504 28.9231 10.2938 28.6134L10.4186 28.4722L18.3579 20.5L10.4186 12.5278C10.1408 12.2488 9.97468 11.8771 9.95169 11.4833C9.92869 11.0895 10.0504 10.7009 10.2938 10.3912L10.4186 10.25L10.2938 10.3912Z" fill="black"/>
</svg>
