<svg width="32" height="34" viewBox="0 0 32 34" fill="none" xmlns="http://www.w3.org/2000/svg">
<path d="M32 7.46341C31.9999 7.86965 31.8485 8.26173 31.5744 8.5653C31.3003 8.86887 30.9225 9.06281 30.5128 9.11034L30.3158 9.12195H28.8926L26.8194 29.8868C26.7065 31.0136 26.1721 32.0587 25.3201 32.8189C24.4681 33.5791 23.3594 34.0001 22.2097 34H9.79032C8.64059 34.0001 7.53191 33.5791 6.67992 32.8189C5.82792 32.0587 5.29351 31.0136 5.18063 29.8868L3.10737 9.12195H1.68421C1.23753 9.12195 0.809144 8.94721 0.493294 8.63618C0.177443 8.32514 0 7.90329 0 7.46341C0 7.02354 0.177443 6.60169 0.493294 6.29065C0.809144 5.97962 1.23753 5.80488 1.68421 5.80488H10.1053C10.1053 5.04257 10.2577 4.28773 10.554 3.58345C10.8502 2.87917 11.2844 2.23924 11.8318 1.70021C12.3792 1.16118 13.029 0.733593 13.7442 0.44187C14.4594 0.150148 15.2259 0 16 0C16.7741 0 17.5406 0.150148 18.2558 0.44187C18.971 0.733593 19.6208 1.16118 20.1682 1.70021C20.7156 2.23924 21.1498 2.87917 21.446 3.58345C21.7423 4.28773 21.8947 5.04257 21.8947 5.80488H30.3158C30.7625 5.80488 31.1909 5.97962 31.5067 6.29065C31.8226 6.60169 32 7.02354 32 7.46341ZM19.7895 12.8537C19.4842 12.8537 19.1893 12.9625 18.9593 13.1601C18.7292 13.3577 18.5796 13.6306 18.5381 13.9284L18.5263 14.0976V25.7073L18.5381 25.8765C18.5797 26.1742 18.7294 26.447 18.9594 26.6445C19.1894 26.842 19.4843 26.9508 19.7895 26.9508C20.0947 26.9508 20.3895 26.842 20.6196 26.6445C20.8496 26.447 20.9992 26.1742 21.0408 25.8765L21.0526 25.7073V14.0976L21.0408 13.9284C20.9993 13.6306 20.8497 13.3577 20.6197 13.1601C20.3896 12.9625 20.0947 12.8537 19.7895 12.8537ZM12.2105 12.8537C11.9053 12.8537 11.6104 12.9625 11.3803 13.1601C11.1503 13.3577 11.0007 13.6306 10.9592 13.9284L10.9474 14.0976V25.7073L10.9592 25.8765C11.0008 26.1742 11.1504 26.447 11.3804 26.6445C11.6105 26.842 11.9053 26.9508 12.2105 26.9508C12.5157 26.9508 12.8106 26.842 13.0406 26.6445C13.2706 26.447 13.4203 26.1742 13.4619 25.8765L13.4737 25.7073V14.0976L13.4619 13.9284C13.4204 13.6306 13.2708 13.3577 13.0407 13.1601C12.8107 12.9625 12.5158 12.8537 12.2105 12.8537ZM16 3.31707C15.33 3.31707 14.6874 3.57918 14.2136 4.04573C13.7398 4.51229 13.4737 5.14507 13.4737 5.80488H18.5263C18.5263 5.14507 18.2602 4.51229 17.7864 4.04573C17.3126 3.57918 16.67 3.31707 16 3.31707Z" fill="white"/>
</svg>
