<svg width="30" height="39" viewBox="0 0 30 39" fill="none" xmlns="http://www.w3.org/2000/svg">
<path d="M1.51481 36.0757H28.5029C28.8826 36.0763 29.248 36.2173 29.5253 36.4704C29.8025 36.7235 29.9709 37.0697 29.9966 37.4391C30.0222 37.8085 29.9031 38.1737 29.6634 38.4609C29.4236 38.748 29.081 38.9358 28.7048 38.9863L28.5029 38.9999H1.51481C1.13217 39.0037 0.762518 38.8647 0.481548 38.6114C0.200579 38.3581 0.0295499 38.0097 0.00348515 37.6375C-0.0225796 37.2652 0.0982916 36.8973 0.341347 36.6092C0.584403 36.321 0.931252 36.1343 1.31087 36.0874L1.51481 36.0757H28.5029H1.51481ZM14.7769 0.0136467L15.0108 0C15.5006 6.29897e-05 15.9732 0.17537 16.3392 0.492671C16.7052 0.809971 16.939 1.2472 16.9963 1.72142L17.0103 1.94951V26.4938L23.5963 20.0741C23.9406 19.7384 24.3987 19.5368 24.8846 19.507C25.3705 19.4772 25.8509 19.6213 26.2355 19.9123L26.4235 20.076C26.7677 20.4117 26.9745 20.8584 27.0051 21.3321C27.0357 21.8059 26.8879 22.2743 26.5894 22.6494L26.4235 22.8326L16.4324 32.5724C16.0884 32.9083 15.6305 33.1103 15.1446 33.1405C14.6586 33.1706 14.1781 33.0269 13.7932 32.7362L13.6053 32.5743L3.6002 22.8326C3.2378 22.4826 3.0263 22.0108 3.00901 21.5137C2.99171 21.0166 3.16992 20.5319 3.50716 20.1587C3.8444 19.7856 4.31516 19.5522 4.82309 19.5064C5.33102 19.4606 5.8377 19.6058 6.23942 19.9123L6.42737 20.0741L13.0114 26.4841V1.94951C13.0115 1.47201 13.1913 1.01114 13.5167 0.65431C13.8421 0.297481 14.2906 0.0695142 14.7769 0.0136467L15.0108 0L14.7769 0.0136467Z" fill="white"/>
</svg>
