<svg width="34" height="40" viewBox="0 0 34 40" fill="none" xmlns="http://www.w3.org/2000/svg">
<path d="M18.9046 11.3217V0H7.58297C6.58207 0 5.62217 0.397605 4.91443 1.10535C4.20669 1.81309 3.80908 2.77299 3.80908 3.77389V13.7804C5.96489 12.5344 8.47132 12.0339 10.9403 12.3563C13.4093 12.6787 15.7032 13.8061 17.4667 15.5639C19.2303 17.3216 20.3652 19.6117 20.6958 22.0797C21.0263 24.5476 20.5341 27.0556 19.2952 29.2156L25.9561 35.8765C26.4807 36.3991 26.7921 37.0577 26.8902 37.7389H30.2263C31.2272 37.7389 32.1871 37.3413 32.8948 36.6335C33.6026 35.9258 34.0002 34.9659 34.0002 33.965V15.0956H22.6785C21.6776 15.0956 20.7177 14.6979 20.01 13.9902C19.3022 13.2825 18.9046 12.3226 18.9046 11.3217Z" fill="white"/>
<path d="M22.6222 39.2106C22.7517 39.3496 22.908 39.4611 23.0816 39.5385C23.2552 39.6158 23.4426 39.6574 23.6326 39.6608C23.8226 39.6641 24.0113 39.6292 24.1876 39.558C24.3638 39.4868 24.5239 39.3809 24.6582 39.2465C24.7926 39.1121 24.8986 38.952 24.9698 38.7758C25.0409 38.5996 25.0759 38.4109 25.0725 38.2208C25.0692 38.0308 25.0276 37.8434 24.9502 37.6698C24.8729 37.4962 24.7614 37.34 24.6223 37.2104L16.8632 29.4494C18.1886 27.783 18.9084 25.7158 18.9049 23.5867C18.9078 21.1163 17.9385 18.744 16.2066 16.9824C15.3293 16.0851 14.2813 15.3724 13.1244 14.8863C11.9675 14.4003 10.725 14.1506 9.47016 14.152C7.42828 14.149 5.44103 14.8114 3.80933 16.0389C1.82351 17.5138 0.496353 19.7096 0.113643 22.1534C-0.269068 24.5972 0.323288 27.0936 1.76315 29.105C3.20302 31.1163 5.3752 32.4817 7.81195 32.9072C10.2487 33.3327 12.7551 32.7842 14.7913 31.3798L22.6222 39.2106ZM9.47016 16.9824C10.3375 16.9824 11.1962 17.1532 11.9975 17.4851C12.7988 17.817 13.5268 18.3035 14.1401 18.9167C14.7534 19.53 15.2398 20.2581 15.5717 21.0593C15.9036 21.8606 16.0745 22.7194 16.0745 23.5867C16.0745 24.454 15.9036 25.3128 15.5717 26.114C15.2398 26.9153 14.7534 27.6434 14.1401 28.2566C13.5268 28.8699 12.7988 29.3564 11.9975 29.6883C11.1962 30.0202 10.3375 30.191 9.47016 30.191C7.71859 30.191 6.03876 29.4952 4.80022 28.2566C3.56167 27.0181 2.86586 25.3383 2.86586 23.5867C2.86586 21.8351 3.56167 20.1553 4.80022 18.9167C6.03876 17.6782 7.71859 16.9824 9.47016 16.9824ZM21.7353 11.3216V0.943359L33.057 12.265H22.6788C22.4285 12.265 22.1886 12.1656 22.0116 11.9887C21.8347 11.8118 21.7353 11.5718 21.7353 11.3216Z" fill="white"/>
</svg>
