<svg width="28" height="32" viewBox="0 0 28 32" fill="none" xmlns="http://www.w3.org/2000/svg">
<path d="M14.0003 3.12501V10.8981C14.0003 11.5853 14.2462 12.2444 14.6837 12.7303C15.1213 13.2162 15.7148 13.4892 16.3337 13.4892H23.3337V26.4444C23.3337 27.1316 23.0878 27.7906 22.6502 28.2766C22.2127 28.7625 21.6192 29.0355 21.0003 29.0355H7.00033C6.38149 29.0355 5.78799 28.7625 5.35041 28.2766C4.91282 27.7906 4.66699 27.1316 4.66699 26.4444V5.71605C4.66699 5.02886 4.91282 4.36982 5.35041 3.88391C5.78799 3.39799 6.38149 3.12501 7.00033 3.12501H14.0003Z" fill="#212121"/>
<path d="M15.75 3.77277V10.8981C15.75 11.0699 15.8115 11.2347 15.9209 11.3562C16.0303 11.4777 16.1786 11.5459 16.3333 11.5459H22.75L15.75 3.77277Z" fill="#212121"/>
</svg>
